<?xml version="1.0" encoding="utf-8"?>
<!-- Generated by IcoMoon.io -->
<!DOCTYPE svg PUBLIC "-//W3C//DTD SVG 1.1//EN" "http://www.w3.org/Graphics/SVG/1.1/DTD/svg11.dtd">
<svg version="1.1" xmlns="http://www.w3.org/2000/svg" xmlns:xlink="http://www.w3.org/1999/xlink" width="512" height="512" viewBox="0 0 512 512">
<g>
</g>
	<path d="M369.797 13.353h-227.605c-40.929 0-74.107 33.157-74.107 74.107v13.281h36.485v19.385h-36.485v15.657h36.505v19.374h-36.505v15.698h36.505v19.364h-36.505v15.698h36.505v19.364h-36.505v15.678h36.505v19.374h-36.505v15.678h36.505v19.374h-36.505v15.688h36.505v19.364h-36.505v15.698h36.505v19.364h-36.505v15.678h36.485v19.385h-36.485v15.667h36.505v19.385h-35.605c5.356 35.656 36.055 63.058 73.206 63.058h227.605c40.94 0 74.117-33.178 74.117-74.117v-337.091c0.010-40.95-33.178-74.107-74.117-74.107zM400.138 159.293h-222.597v-62.044h222.597v62.044z" fill="#000000" />
</svg>
